<svg width="20" height="20" viewBox="0 0 20 20" fill="none" xmlns="http://www.w3.org/2000/svg">
<path d="M11 6C11.7956 6 12.5587 6.31607 13.1213 6.87868C13.6839 7.44129 14 8.20435 14 9C14 9.26522 14.1054 9.51957 14.2929 9.70711C14.4804 9.89464 14.7348 10 15 10C15.2652 10 15.5196 9.89464 15.7071 9.70711C15.8946 9.51957 16 9.26522 16 9C16 7.67392 15.4732 6.40215 14.5355 5.46447C13.5979 4.52678 12.3261 4 11 4C10.7348 4 10.4804 4.10536 10.2929 4.29289C10.1054 4.48043 10 4.73478 10 5C10 5.26522 10.1054 5.51957 10.2929 5.70711C10.4804 5.89464 10.7348 6 11 6V6Z" fill="#0414A7"/>
<path d="M11 2C12.8565 2 14.637 2.7375 15.9497 4.05025C17.2625 5.36301 18 7.14348 18 9C18 9.26522 18.1054 9.51957 18.2929 9.70711C18.4804 9.89464 18.7348 10 19 10C19.2652 10 19.5196 9.89464 19.7071 9.70711C19.8946 9.51957 20 9.26522 20 9C20 6.61305 19.0518 4.32387 17.364 2.63604C15.6761 0.948211 13.3869 0 11 0C10.7348 0 10.4804 0.105357 10.2929 0.292893C10.1054 0.48043 10 0.734784 10 1C10 1.26522 10.1054 1.51957 10.2929 1.70711C10.4804 1.89464 10.7348 2 11 2V2ZM19.75 13.91C19.695 13.7495 19.6 13.6056 19.4741 13.4919C19.3481 13.3781 19.1953 13.2984 19.03 13.26L13.03 11.89C12.8671 11.8531 12.6976 11.8575 12.5369 11.9029C12.3762 11.9484 12.2294 12.0333 12.11 12.15C11.97 12.28 11.96 12.29 11.31 13.53C9.1532 12.5362 7.42499 10.8009 6.44 8.64C7.71 8 7.72 8 7.85 7.85C7.96671 7.73056 8.05165 7.58379 8.09706 7.42308C8.14248 7.26238 8.14693 7.09286 8.11 6.93L6.74 1C6.70165 0.834696 6.62186 0.681871 6.50814 0.555912C6.39443 0.429952 6.25053 0.335002 6.09 0.28C5.85647 0.196589 5.61531 0.1363 5.37 0.0999999C5.11725 0.0413952 4.85933 0.00789934 4.6 0C3.38 0 2.20998 0.484642 1.34731 1.34731C0.484642 2.20998 0 3.38 0 4.6C0.00529192 8.68271 1.62949 12.5967 4.5164 15.4836C7.40331 18.3705 11.3173 19.9947 15.4 20C16.0041 20 16.6022 19.881 17.1603 19.6498C17.7184 19.4187 18.2255 19.0798 18.6527 18.6527C19.0798 18.2255 19.4187 17.7184 19.6498 17.1603C19.881 16.6022 20 16.0041 20 15.4C20.0003 15.1455 19.9802 14.8913 19.94 14.64C19.898 14.3916 19.8344 14.1474 19.75 13.91V13.91Z" fill="#0414A7"/>
</svg>
